<?xml version="1.0" encoding="utf-8"?>
<svg version="1.1" xmlns="http://www.w3.org/2000/svg" xmlns:xlink="http://www.w3.org/1999/xlink" width="1000" height="1000" viewBox="0 0 1000 1000" enable-background="new 0 0 1000 1000" xml:space="preserve"><rect x="0" y="0" rx="333.33334" ry="333.33334" width="1000" height="1000" fill="rgb(255,255,255)" opacity="1.0" /><rect x="0" y="0" rx="166.66667" ry="166.66667" width="1000" height="1000" fill="rgb(136,115,164)" opacity="1.0" /><rect x="50" y="50" rx="138.46153" ry="138.46153" width="900" height="900" fill="rgb(255,255,255)" opacity="1.0" /><g transform="translate(120,120) scale(0.76000005,0.76000005)"><svg width="1000" height="1000" viewBox="0 0 580 580" enable-background="new 0 0 1000 1000" xml:space="preserve"><rect x="0" y="0" width="580" height="580" fill="rgb(255,255,255)" opacity="1.0" /><rect x="181.0" y="1.0" rx="6.6666665" ry="6.6666665" width="18.0" height="18.0" fill="rgb(136,115,164)" opacity="1.0" /><rect x="241.0" y="1.0" rx="6.6666665" ry="6.6666665" width="18.0" height="18.0" fill="rgb(136,115,164)" opacity="1.0" /><rect x="301.0" y="1.0" rx="6.6666665" ry="6.6666665" width="18.0" height="18.0" fill="rgb(136,115,164)" opacity="1.0" /><rect x="321.0" y="1.0" rx="6.6666665" ry="6.6666665" width="18.0" height="18.0" fill="rgb(136,115,164)" opacity="1.0" /><rect x="361.0" y="1.0" rx="6.6666665" ry="6.6666665" width="18.0" height="18.0" fill="rgb(136,115,164)" opacity="1.0" /><rect x="401.0" y="1.0" rx="6.6666665" ry="6.6666665" width="18.0" height="18.0" fill="rgb(136,115,164)" opacity="1.0" /><rect x="221.0" y="21.0" rx="6.6666665" ry="6.6666665" width="18.0" height="18.0" fill="rgb(136,115,164)" opacity="1.0" /><rect x="341.0" y="21.0" rx="6.6666665" ry="6.6666665" width="18.0" height="18.0" fill="rgb(136,115,164)" opacity="1.0" /><rect x="381.0" y="21.0" rx="6.6666665" ry="6.6666665" width="18.0" height="18.0" fill="rgb(136,115,164)" opacity="1.0" /><rect x="161.0" y="41.0" rx="6.6666665" ry="6.6666665" width="18.0" height="18.0" fill="rgb(136,115,164)" opacity="1.0" /><rect x="201.0" y="41.0" rx="6.6666665" ry="6.6666665" width="18.0" height="18.0" fill="rgb(136,115,164)" opacity="1.0" /><rect x="241.0" y="41.0" rx="6.6666665" ry="6.6666665" width="18.0" height="18.0" fill="rgb(136,115,164)" opacity="1.0" /><rect x="281.0" y="41.0" rx="6.6666665" ry="6.6666665" width="18.0" height="18.0" fill="rgb(136,115,164)" opacity="1.0" /><rect x="321.0" y="41.0" rx="6.6666665" ry="6.6666665" width="18.0" height="18.0" fill="rgb(136,115,164)" opacity="1.0" /><rect x="341.0" y="41.0" rx="6.6666665" ry="6.6666665" width="18.0" height="18.0" fill="rgb(136,115,164)" opacity="1.0" /><rect x="361.0" y="41.0" rx="6.6666665" ry="6.6666665" width="18.0" height="18.0" fill="rgb(136,115,164)" opacity="1.0" /><rect x="381.0" y="41.0" rx="6.6666665" ry="6.6666665" width="18.0" height="18.0" fill="rgb(136,115,164)" opacity="1.0" /><rect x="401.0" y="41.0" rx="6.6666665" ry="6.6666665" width="18.0" height="18.0" fill="rgb(136,115,164)" opacity="1.0" /><rect x="161.0" y="61.0" rx="6.6666665" ry="6.6666665" width="18.0" height="18.0" fill="rgb(136,115,164)" opacity="1.0" /><rect x="181.0" y="61.0" rx="6.6666665" ry="6.6666665" width="18.0" height="18.0" fill="rgb(136,115,164)" opacity="1.0" /><rect x="201.0" y="61.0" rx="6.6666665" ry="6.6666665" width="18.0" height="18.0" fill="rgb(136,115,164)" opacity="1.0" /><rect x="221.0" y="61.0" rx="6.6666665" ry="6.6666665" width="18.0" height="18.0" fill="rgb(136,115,164)" opacity="1.0" /><rect x="321.0" y="61.0" rx="6.6666665" ry="6.6666665" width="18.0" height="18.0" fill="rgb(136,115,164)" opacity="1.0" /><rect x="361.0" y="61.0" rx="6.6666665" ry="6.6666665" width="18.0" height="18.0" fill="rgb(136,115,164)" opacity="1.0" /><rect x="161.0" y="81.0" rx="6.6666665" ry="6.6666665" width="18.0" height="18.0" fill="rgb(136,115,164)" opacity="1.0" /><rect x="221.0" y="81.0" rx="6.6666665" ry="6.6666665" width="18.0" height="18.0" fill="rgb(136,115,164)" opacity="1.0" /><rect x="261.0" y="81.0" rx="6.6666665" ry="6.6666665" width="18.0" height="18.0" fill="rgb(136,115,164)" opacity="1.0" /><rect x="281.0" y="81.0" rx="6.6666665" ry="6.6666665" width="18.0" height="18.0" fill="rgb(136,115,164)" opacity="1.0" /><rect x="301.0" y="81.0" rx="6.6666665" ry="6.6666665" width="18.0" height="18.0" fill="rgb(136,115,164)" opacity="1.0" /><rect x="401.0" y="81.0" rx="6.6666665" ry="6.6666665" width="18.0" height="18.0" fill="rgb(136,115,164)" opacity="1.0" /><rect x="161.0" y="101.0" rx="6.6666665" ry="6.6666665" width="18.0" height="18.0" fill="rgb(136,115,164)" opacity="1.0" /><rect x="181.0" y="101.0" rx="6.6666665" ry="6.6666665" width="18.0" height="18.0" fill="rgb(136,115,164)" opacity="1.0" /><rect x="201.0" y="101.0" rx="6.6666665" ry="6.6666665" width="18.0" height="18.0" fill="rgb(136,115,164)" opacity="1.0" /><rect x="241.0" y="101.0" rx="6.6666665" ry="6.6666665" width="18.0" height="18.0" fill="rgb(136,115,164)" opacity="1.0" /><rect x="261.0" y="101.0" rx="6.6666665" ry="6.6666665" width="18.0" height="18.0" fill="rgb(136,115,164)" opacity="1.0" /><rect x="281.0" y="101.0" rx="6.6666665" ry="6.6666665" width="18.0" height="18.0" fill="rgb(136,115,164)" opacity="1.0" /><rect x="301.0" y="101.0" rx="6.6666665" ry="6.6666665" width="18.0" height="18.0" fill="rgb(136,115,164)" opacity="1.0" /><rect x="321.0" y="101.0" rx="6.6666665" ry="6.6666665" width="18.0" height="18.0" fill="rgb(136,115,164)" opacity="1.0" /><rect x="341.0" y="101.0" rx="6.6666665" ry="6.6666665" width="18.0" height="18.0" fill="rgb(136,115,164)" opacity="1.0" /><rect x="401.0" y="101.0" rx="6.6666665" ry="6.6666665" width="18.0" height="18.0" fill="rgb(136,115,164)" opacity="1.0" /><rect x="161.0" y="121.0" rx="6.6666665" ry="6.6666665" width="18.0" height="18.0" fill="rgb(136,115,164)" opacity="1.0" /><rect x="201.0" y="121.0" rx="6.6666665" ry="6.6666665" width="18.0" height="18.0" fill="rgb(136,115,164)" opacity="1.0" /><rect x="241.0" y="121.0" rx="6.6666665" ry="6.6666665" width="18.0" height="18.0" fill="rgb(136,115,164)" opacity="1.0" /><rect x="281.0" y="121.0" rx="6.6666665" ry="6.6666665" width="18.0" height="18.0" fill="rgb(136,115,164)" opacity="1.0" /><rect x="321.0" y="121.0" rx="6.6666665" ry="6.6666665" width="18.0" height="18.0" fill="rgb(136,115,164)" opacity="1.0" /><rect x="361.0" y="121.0" rx="6.6666665" ry="6.6666665" width="18.0" height="18.0" fill="rgb(136,115,164)" opacity="1.0" /><rect x="401.0" y="121.0" rx="6.6666665" ry="6.6666665" width="18.0" height="18.0" fill="rgb(136,115,164)" opacity="1.0" /><rect x="161.0" y="141.0" rx="6.6666665" ry="6.6666665" width="18.0" height="18.0" fill="rgb(136,115,164)" opacity="1.0" /><rect x="181.0" y="141.0" rx="6.6666665" ry="6.6666665" width="18.0" height="18.0" fill="rgb(136,115,164)" opacity="1.0" /><rect x="201.0" y="141.0" rx="6.6666665" ry="6.6666665" width="18.0" height="18.0" fill="rgb(136,115,164)" opacity="1.0" /><rect x="221.0" y="141.0" rx="6.6666665" ry="6.6666665" width="18.0" height="18.0" fill="rgb(136,115,164)" opacity="1.0" /><rect x="261.0" y="141.0" rx="6.6666665" ry="6.6666665" width="18.0" height="18.0" fill="rgb(136,115,164)" opacity="1.0" /><rect x="301.0" y="141.0" rx="6.6666665" ry="6.6666665" width="18.0" height="18.0" fill="rgb(136,115,164)" opacity="1.0" /><rect x="361.0" y="141.0" rx="6.6666665" ry="6.6666665" width="18.0" height="18.0" fill="rgb(136,115,164)" opacity="1.0" /><rect x="381.0" y="141.0" rx="6.6666665" ry="6.6666665" width="18.0" height="18.0" fill="rgb(136,115,164)" opacity="1.0" /><rect x="401.0" y="141.0" rx="6.6666665" ry="6.6666665" width="18.0" height="18.0" fill="rgb(136,115,164)" opacity="1.0" /><rect x="1.0" y="161.0" rx="6.6666665" ry="6.6666665" width="18.0" height="18.0" fill="rgb(136,115,164)" opacity="1.0" /><rect x="41.0" y="161.0" rx="6.6666665" ry="6.6666665" width="18.0" height="18.0" fill="rgb(136,115,164)" opacity="1.0" /><rect x="61.0" y="161.0" rx="6.6666665" ry="6.6666665" width="18.0" height="18.0" fill="rgb(136,115,164)" opacity="1.0" /><rect x="81.0" y="161.0" rx="6.6666665" ry="6.6666665" width="18.0" height="18.0" fill="rgb(136,115,164)" opacity="1.0" /><rect x="101.0" y="161.0" rx="6.6666665" ry="6.6666665" width="18.0" height="18.0" fill="rgb(136,115,164)" opacity="1.0" /><rect x="121.0" y="161.0" rx="6.6666665" ry="6.6666665" width="18.0" height="18.0" fill="rgb(136,115,164)" opacity="1.0" /><rect x="201.0" y="161.0" rx="6.6666665" ry="6.6666665" width="18.0" height="18.0" fill="rgb(136,115,164)" opacity="1.0" /><rect x="241.0" y="161.0" rx="6.6666665" ry="6.6666665" width="18.0" height="18.0" fill="rgb(136,115,164)" opacity="1.0" /><rect x="281.0" y="161.0" rx="6.6666665" ry="6.6666665" width="18.0" height="18.0" fill="rgb(136,115,164)" opacity="1.0" /><rect x="301.0" y="161.0" rx="6.6666665" ry="6.6666665" width="18.0" height="18.0" fill="rgb(136,115,164)" opacity="1.0" /><rect x="341.0" y="161.0" rx="6.6666665" ry="6.6666665" width="18.0" height="18.0" fill="rgb(136,115,164)" opacity="1.0" /><rect x="401.0" y="161.0" rx="6.6666665" ry="6.6666665" width="18.0" height="18.0" fill="rgb(136,115,164)" opacity="1.0" /><rect x="441.0" y="161.0" rx="6.6666665" ry="6.6666665" width="18.0" height="18.0" fill="rgb(136,115,164)" opacity="1.0" /><rect x="461.0" y="161.0" rx="6.6666665" ry="6.6666665" width="18.0" height="18.0" fill="rgb(136,115,164)" opacity="1.0" /><rect x="481.0" y="161.0" rx="6.6666665" ry="6.6666665" width="18.0" height="18.0" fill="rgb(136,115,164)" opacity="1.0" /><rect x="501.0" y="161.0" rx="6.6666665" ry="6.6666665" width="18.0" height="18.0" fill="rgb(136,115,164)" opacity="1.0" /><rect x="521.0" y="161.0" rx="6.6666665" ry="6.6666665" width="18.0" height="18.0" fill="rgb(136,115,164)" opacity="1.0" /><rect x="1.0" y="181.0" rx="6.6666665" ry="6.6666665" width="18.0" height="18.0" fill="rgb(136,115,164)" opacity="1.0" /><rect x="21.0" y="181.0" rx="6.6666665" ry="6.6666665" width="18.0" height="18.0" fill="rgb(136,115,164)" opacity="1.0" /><rect x="101.0" y="181.0" rx="6.6666665" ry="6.6666665" width="18.0" height="18.0" fill="rgb(136,115,164)" opacity="1.0" /><rect x="141.0" y="181.0" rx="6.6666665" ry="6.6666665" width="18.0" height="18.0" fill="rgb(136,115,164)" opacity="1.0" /><rect x="181.0" y="181.0" rx="6.6666665" ry="6.6666665" width="18.0" height="18.0" fill="rgb(136,115,164)" opacity="1.0" /><rect x="201.0" y="181.0" rx="6.6666665" ry="6.6666665" width="18.0" height="18.0" fill="rgb(136,115,164)" opacity="1.0" /><rect x="301.0" y="181.0" rx="6.6666665" ry="6.6666665" width="18.0" height="18.0" fill="rgb(136,115,164)" opacity="1.0" /><rect x="321.0" y="181.0" rx="6.6666665" ry="6.6666665" width="18.0" height="18.0" fill="rgb(136,115,164)" opacity="1.0" /><rect x="361.0" y="181.0" rx="6.6666665" ry="6.6666665" width="18.0" height="18.0" fill="rgb(136,115,164)" opacity="1.0" /><rect x="401.0" y="181.0" rx="6.6666665" ry="6.6666665" width="18.0" height="18.0" fill="rgb(136,115,164)" opacity="1.0" /><rect x="441.0" y="181.0" rx="6.6666665" ry="6.6666665" width="18.0" height="18.0" fill="rgb(136,115,164)" opacity="1.0" /><rect x="461.0" y="181.0" rx="6.6666665" ry="6.6666665" width="18.0" height="18.0" fill="rgb(136,115,164)" opacity="1.0" /><rect x="501.0" y="181.0" rx="6.6666665" ry="6.6666665" width="18.0" height="18.0" fill="rgb(136,115,164)" opacity="1.0" /><rect x="541.0" y="181.0" rx="6.6666665" ry="6.6666665" width="18.0" height="18.0" fill="rgb(136,115,164)" opacity="1.0" /><rect x="81.0" y="201.0" rx="6.6666665" ry="6.6666665" width="18.0" height="18.0" fill="rgb(136,115,164)" opacity="1.0" /><rect x="121.0" y="201.0" rx="6.6666665" ry="6.6666665" width="18.0" height="18.0" fill="rgb(136,115,164)" opacity="1.0" /><rect x="141.0" y="201.0" rx="6.6666665" ry="6.6666665" width="18.0" height="18.0" fill="rgb(136,115,164)" opacity="1.0" /><rect x="161.0" y="201.0" rx="6.6666665" ry="6.6666665" width="18.0" height="18.0" fill="rgb(136,115,164)" opacity="1.0" /><rect x="241.0" y="201.0" rx="6.6666665" ry="6.6666665" width="18.0" height="18.0" fill="rgb(136,115,164)" opacity="1.0" /><rect x="341.0" y="201.0" rx="6.6666665" ry="6.6666665" width="18.0" height="18.0" fill="rgb(136,115,164)" opacity="1.0" /><rect x="501.0" y="201.0" rx="6.6666665" ry="6.6666665" width="18.0" height="18.0" fill="rgb(136,115,164)" opacity="1.0" /><rect x="521.0" y="201.0" rx="6.6666665" ry="6.6666665" width="18.0" height="18.0" fill="rgb(136,115,164)" opacity="1.0" /><rect x="41.0" y="221.0" rx="6.6666665" ry="6.6666665" width="18.0" height="18.0" fill="rgb(136,115,164)" opacity="1.0" /><rect x="81.0" y="221.0" rx="6.6666665" ry="6.6666665" width="18.0" height="18.0" fill="rgb(136,115,164)" opacity="1.0" /><rect x="141.0" y="221.0" rx="6.6666665" ry="6.6666665" width="18.0" height="18.0" fill="rgb(136,115,164)" opacity="1.0" /><rect x="221.0" y="221.0" rx="6.6666665" ry="6.6666665" width="18.0" height="18.0" fill="rgb(136,115,164)" opacity="1.0" /><rect x="281.0" y="221.0" rx="6.6666665" ry="6.6666665" width="18.0" height="18.0" fill="rgb(136,115,164)" opacity="1.0" /><rect x="321.0" y="221.0" rx="6.6666665" ry="6.6666665" width="18.0" height="18.0" fill="rgb(136,115,164)" opacity="1.0" /><rect x="341.0" y="221.0" rx="6.6666665" ry="6.6666665" width="18.0" height="18.0" fill="rgb(136,115,164)" opacity="1.0" /><rect x="381.0" y="221.0" rx="6.6666665" ry="6.6666665" width="18.0" height="18.0" fill="rgb(136,115,164)" opacity="1.0" /><rect x="401.0" y="221.0" rx="6.6666665" ry="6.6666665" width="18.0" height="18.0" fill="rgb(136,115,164)" opacity="1.0" /><rect x="421.0" y="221.0" rx="6.6666665" ry="6.6666665" width="18.0" height="18.0" fill="rgb(136,115,164)" opacity="1.0" /><rect x="441.0" y="221.0" rx="6.6666665" ry="6.6666665" width="18.0" height="18.0" fill="rgb(136,115,164)" opacity="1.0" /><rect x="461.0" y="221.0" rx="6.6666665" ry="6.6666665" width="18.0" height="18.0" fill="rgb(136,115,164)" opacity="1.0" /><rect x="481.0" y="221.0" rx="6.6666665" ry="6.6666665" width="18.0" height="18.0" fill="rgb(136,115,164)" opacity="1.0" /><rect x="501.0" y="221.0" rx="6.6666665" ry="6.6666665" width="18.0" height="18.0" fill="rgb(136,115,164)" opacity="1.0" /><rect x="561.0" y="221.0" rx="6.6666665" ry="6.6666665" width="18.0" height="18.0" fill="rgb(136,115,164)" opacity="1.0" /><rect x="41.0" y="241.0" rx="6.6666665" ry="6.6666665" width="18.0" height="18.0" fill="rgb(136,115,164)" opacity="1.0" /><rect x="101.0" y="241.0" rx="6.6666665" ry="6.6666665" width="18.0" height="18.0" fill="rgb(136,115,164)" opacity="1.0" /><rect x="121.0" y="241.0" rx="6.6666665" ry="6.6666665" width="18.0" height="18.0" fill="rgb(136,115,164)" opacity="1.0" /><rect x="141.0" y="241.0" rx="6.6666665" ry="6.6666665" width="18.0" height="18.0" fill="rgb(136,115,164)" opacity="1.0" /><rect x="161.0" y="241.0" rx="6.6666665" ry="6.6666665" width="18.0" height="18.0" fill="rgb(136,115,164)" opacity="1.0" /><rect x="201.0" y="241.0" rx="6.6666665" ry="6.6666665" width="18.0" height="18.0" fill="rgb(136,115,164)" opacity="1.0" /><rect x="221.0" y="241.0" rx="6.6666665" ry="6.6666665" width="18.0" height="18.0" fill="rgb(136,115,164)" opacity="1.0" /><rect x="321.0" y="241.0" rx="6.6666665" ry="6.6666665" width="18.0" height="18.0" fill="rgb(136,115,164)" opacity="1.0" /><rect x="361.0" y="241.0" rx="6.6666665" ry="6.6666665" width="18.0" height="18.0" fill="rgb(136,115,164)" opacity="1.0" /><rect x="461.0" y="241.0" rx="6.6666665" ry="6.6666665" width="18.0" height="18.0" fill="rgb(136,115,164)" opacity="1.0" /><rect x="481.0" y="241.0" rx="6.6666665" ry="6.6666665" width="18.0" height="18.0" fill="rgb(136,115,164)" opacity="1.0" /><rect x="1.0" y="261.0" rx="6.6666665" ry="6.6666665" width="18.0" height="18.0" fill="rgb(136,115,164)" opacity="1.0" /><rect x="21.0" y="261.0" rx="6.6666665" ry="6.6666665" width="18.0" height="18.0" fill="rgb(136,115,164)" opacity="1.0" /><rect x="41.0" y="261.0" rx="6.6666665" ry="6.6666665" width="18.0" height="18.0" fill="rgb(136,115,164)" opacity="1.0" /><rect x="81.0" y="261.0" rx="6.6666665" ry="6.6666665" width="18.0" height="18.0" fill="rgb(136,115,164)" opacity="1.0" /><rect x="101.0" y="261.0" rx="6.6666665" ry="6.6666665" width="18.0" height="18.0" fill="rgb(136,115,164)" opacity="1.0" /><rect x="161.0" y="261.0" rx="6.6666665" ry="6.6666665" width="18.0" height="18.0" fill="rgb(136,115,164)" opacity="1.0" /><rect x="221.0" y="261.0" rx="6.6666665" ry="6.6666665" width="18.0" height="18.0" fill="rgb(136,115,164)" opacity="1.0" /><rect x="241.0" y="261.0" rx="6.6666665" ry="6.6666665" width="18.0" height="18.0" fill="rgb(136,115,164)" opacity="1.0" /><rect x="261.0" y="261.0" rx="6.6666665" ry="6.6666665" width="18.0" height="18.0" fill="rgb(136,115,164)" opacity="1.0" /><rect x="281.0" y="261.0" rx="6.6666665" ry="6.6666665" width="18.0" height="18.0" fill="rgb(136,115,164)" opacity="1.0" /><rect x="301.0" y="261.0" rx="6.6666665" ry="6.6666665" width="18.0" height="18.0" fill="rgb(136,115,164)" opacity="1.0" /><rect x="381.0" y="261.0" rx="6.6666665" ry="6.6666665" width="18.0" height="18.0" fill="rgb(136,115,164)" opacity="1.0" /><rect x="401.0" y="261.0" rx="6.6666665" ry="6.6666665" width="18.0" height="18.0" fill="rgb(136,115,164)" opacity="1.0" /><rect x="421.0" y="261.0" rx="6.6666665" ry="6.6666665" width="18.0" height="18.0" fill="rgb(136,115,164)" opacity="1.0" /><rect x="461.0" y="261.0" rx="6.6666665" ry="6.6666665" width="18.0" height="18.0" fill="rgb(136,115,164)" opacity="1.0" /><rect x="481.0" y="261.0" rx="6.6666665" ry="6.6666665" width="18.0" height="18.0" fill="rgb(136,115,164)" opacity="1.0" /><rect x="501.0" y="261.0" rx="6.6666665" ry="6.6666665" width="18.0" height="18.0" fill="rgb(136,115,164)" opacity="1.0" /><rect x="541.0" y="261.0" rx="6.6666665" ry="6.6666665" width="18.0" height="18.0" fill="rgb(136,115,164)" opacity="1.0" /><rect x="41.0" y="281.0" rx="6.6666665" ry="6.6666665" width="18.0" height="18.0" fill="rgb(136,115,164)" opacity="1.0" /><rect x="61.0" y="281.0" rx="6.6666665" ry="6.6666665" width="18.0" height="18.0" fill="rgb(136,115,164)" opacity="1.0" /><rect x="81.0" y="281.0" rx="6.6666665" ry="6.6666665" width="18.0" height="18.0" fill="rgb(136,115,164)" opacity="1.0" /><rect x="101.0" y="281.0" rx="6.6666665" ry="6.6666665" width="18.0" height="18.0" fill="rgb(136,115,164)" opacity="1.0" /><rect x="121.0" y="281.0" rx="6.6666665" ry="6.6666665" width="18.0" height="18.0" fill="rgb(136,115,164)" opacity="1.0" /><rect x="201.0" y="281.0" rx="6.6666665" ry="6.6666665" width="18.0" height="18.0" fill="rgb(136,115,164)" opacity="1.0" /><rect x="261.0" y="281.0" rx="6.6666665" ry="6.6666665" width="18.0" height="18.0" fill="rgb(136,115,164)" opacity="1.0" /><rect x="281.0" y="281.0" rx="6.6666665" ry="6.6666665" width="18.0" height="18.0" fill="rgb(136,115,164)" opacity="1.0" /><rect x="301.0" y="281.0" rx="6.6666665" ry="6.6666665" width="18.0" height="18.0" fill="rgb(136,115,164)" opacity="1.0" /><rect x="321.0" y="281.0" rx="6.6666665" ry="6.6666665" width="18.0" height="18.0" fill="rgb(136,115,164)" opacity="1.0" /><rect x="341.0" y="281.0" rx="6.6666665" ry="6.6666665" width="18.0" height="18.0" fill="rgb(136,115,164)" opacity="1.0" /><rect x="361.0" y="281.0" rx="6.6666665" ry="6.6666665" width="18.0" height="18.0" fill="rgb(136,115,164)" opacity="1.0" /><rect x="381.0" y="281.0" rx="6.6666665" ry="6.6666665" width="18.0" height="18.0" fill="rgb(136,115,164)" opacity="1.0" /><rect x="461.0" y="281.0" rx="6.6666665" ry="6.6666665" width="18.0" height="18.0" fill="rgb(136,115,164)" opacity="1.0" /><rect x="501.0" y="281.0" rx="6.6666665" ry="6.6666665" width="18.0" height="18.0" fill="rgb(136,115,164)" opacity="1.0" /><rect x="521.0" y="281.0" rx="6.6666665" ry="6.6666665" width="18.0" height="18.0" fill="rgb(136,115,164)" opacity="1.0" /><rect x="541.0" y="281.0" rx="6.6666665" ry="6.6666665" width="18.0" height="18.0" fill="rgb(136,115,164)" opacity="1.0" /><rect x="561.0" y="281.0" rx="6.6666665" ry="6.6666665" width="18.0" height="18.0" fill="rgb(136,115,164)" opacity="1.0" /><rect x="1.0" y="301.0" rx="6.6666665" ry="6.6666665" width="18.0" height="18.0" fill="rgb(136,115,164)" opacity="1.0" /><rect x="21.0" y="301.0" rx="6.6666665" ry="6.6666665" width="18.0" height="18.0" fill="rgb(136,115,164)" opacity="1.0" /><rect x="41.0" y="301.0" rx="6.6666665" ry="6.6666665" width="18.0" height="18.0" fill="rgb(136,115,164)" opacity="1.0" /><rect x="61.0" y="301.0" rx="6.6666665" ry="6.6666665" width="18.0" height="18.0" fill="rgb(136,115,164)" opacity="1.0" /><rect x="81.0" y="301.0" rx="6.6666665" ry="6.6666665" width="18.0" height="18.0" fill="rgb(136,115,164)" opacity="1.0" /><rect x="141.0" y="301.0" rx="6.6666665" ry="6.6666665" width="18.0" height="18.0" fill="rgb(136,115,164)" opacity="1.0" /><rect x="181.0" y="301.0" rx="6.6666665" ry="6.6666665" width="18.0" height="18.0" fill="rgb(136,115,164)" opacity="1.0" /><rect x="221.0" y="301.0" rx="6.6666665" ry="6.6666665" width="18.0" height="18.0" fill="rgb(136,115,164)" opacity="1.0" /><rect x="261.0" y="301.0" rx="6.6666665" ry="6.6666665" width="18.0" height="18.0" fill="rgb(136,115,164)" opacity="1.0" /><rect x="301.0" y="301.0" rx="6.6666665" ry="6.6666665" width="18.0" height="18.0" fill="rgb(136,115,164)" opacity="1.0" /><rect x="341.0" y="301.0" rx="6.6666665" ry="6.6666665" width="18.0" height="18.0" fill="rgb(136,115,164)" opacity="1.0" /><rect x="361.0" y="301.0" rx="6.6666665" ry="6.6666665" width="18.0" height="18.0" fill="rgb(136,115,164)" opacity="1.0" /><rect x="381.0" y="301.0" rx="6.6666665" ry="6.6666665" width="18.0" height="18.0" fill="rgb(136,115,164)" opacity="1.0" /><rect x="401.0" y="301.0" rx="6.6666665" ry="6.6666665" width="18.0" height="18.0" fill="rgb(136,115,164)" opacity="1.0" /><rect x="421.0" y="301.0" rx="6.6666665" ry="6.6666665" width="18.0" height="18.0" fill="rgb(136,115,164)" opacity="1.0" /><rect x="441.0" y="301.0" rx="6.6666665" ry="6.6666665" width="18.0" height="18.0" fill="rgb(136,115,164)" opacity="1.0" /><rect x="461.0" y="301.0" rx="6.6666665" ry="6.6666665" width="18.0" height="18.0" fill="rgb(136,115,164)" opacity="1.0" /><rect x="481.0" y="301.0" rx="6.6666665" ry="6.6666665" width="18.0" height="18.0" fill="rgb(136,115,164)" opacity="1.0" /><rect x="541.0" y="301.0" rx="6.6666665" ry="6.6666665" width="18.0" height="18.0" fill="rgb(136,115,164)" opacity="1.0" /><rect x="561.0" y="301.0" rx="6.6666665" ry="6.6666665" width="18.0" height="18.0" fill="rgb(136,115,164)" opacity="1.0" /><rect x="21.0" y="321.0" rx="6.6666665" ry="6.6666665" width="18.0" height="18.0" fill="rgb(136,115,164)" opacity="1.0" /><rect x="41.0" y="321.0" rx="6.6666665" ry="6.6666665" width="18.0" height="18.0" fill="rgb(136,115,164)" opacity="1.0" /><rect x="81.0" y="321.0" rx="6.6666665" ry="6.6666665" width="18.0" height="18.0" fill="rgb(136,115,164)" opacity="1.0" /><rect x="121.0" y="321.0" rx="6.6666665" ry="6.6666665" width="18.0" height="18.0" fill="rgb(136,115,164)" opacity="1.0" /><rect x="141.0" y="321.0" rx="6.6666665" ry="6.6666665" width="18.0" height="18.0" fill="rgb(136,115,164)" opacity="1.0" /><rect x="161.0" y="321.0" rx="6.6666665" ry="6.6666665" width="18.0" height="18.0" fill="rgb(136,115,164)" opacity="1.0" /><rect x="201.0" y="321.0" rx="6.6666665" ry="6.6666665" width="18.0" height="18.0" fill="rgb(136,115,164)" opacity="1.0" /><rect x="281.0" y="321.0" rx="6.6666665" ry="6.6666665" width="18.0" height="18.0" fill="rgb(136,115,164)" opacity="1.0" /><rect x="301.0" y="321.0" rx="6.6666665" ry="6.6666665" width="18.0" height="18.0" fill="rgb(136,115,164)" opacity="1.0" /><rect x="341.0" y="321.0" rx="6.6666665" ry="6.6666665" width="18.0" height="18.0" fill="rgb(136,115,164)" opacity="1.0" /><rect x="481.0" y="321.0" rx="6.6666665" ry="6.6666665" width="18.0" height="18.0" fill="rgb(136,115,164)" opacity="1.0" /><rect x="1.0" y="341.0" rx="6.6666665" ry="6.6666665" width="18.0" height="18.0" fill="rgb(136,115,164)" opacity="1.0" /><rect x="41.0" y="341.0" rx="6.6666665" ry="6.6666665" width="18.0" height="18.0" fill="rgb(136,115,164)" opacity="1.0" /><rect x="61.0" y="341.0" rx="6.6666665" ry="6.6666665" width="18.0" height="18.0" fill="rgb(136,115,164)" opacity="1.0" /><rect x="81.0" y="341.0" rx="6.6666665" ry="6.6666665" width="18.0" height="18.0" fill="rgb(136,115,164)" opacity="1.0" /><rect x="101.0" y="341.0" rx="6.6666665" ry="6.6666665" width="18.0" height="18.0" fill="rgb(136,115,164)" opacity="1.0" /><rect x="201.0" y="341.0" rx="6.6666665" ry="6.6666665" width="18.0" height="18.0" fill="rgb(136,115,164)" opacity="1.0" /><rect x="221.0" y="341.0" rx="6.6666665" ry="6.6666665" width="18.0" height="18.0" fill="rgb(136,115,164)" opacity="1.0" /><rect x="241.0" y="341.0" rx="6.6666665" ry="6.6666665" width="18.0" height="18.0" fill="rgb(136,115,164)" opacity="1.0" /><rect x="301.0" y="341.0" rx="6.6666665" ry="6.6666665" width="18.0" height="18.0" fill="rgb(136,115,164)" opacity="1.0" /><rect x="321.0" y="341.0" rx="6.6666665" ry="6.6666665" width="18.0" height="18.0" fill="rgb(136,115,164)" opacity="1.0" /><rect x="361.0" y="341.0" rx="6.6666665" ry="6.6666665" width="18.0" height="18.0" fill="rgb(136,115,164)" opacity="1.0" /><rect x="381.0" y="341.0" rx="6.6666665" ry="6.6666665" width="18.0" height="18.0" fill="rgb(136,115,164)" opacity="1.0" /><rect x="401.0" y="341.0" rx="6.6666665" ry="6.6666665" width="18.0" height="18.0" fill="rgb(136,115,164)" opacity="1.0" /><rect x="461.0" y="341.0" rx="6.6666665" ry="6.6666665" width="18.0" height="18.0" fill="rgb(136,115,164)" opacity="1.0" /><rect x="481.0" y="341.0" rx="6.6666665" ry="6.6666665" width="18.0" height="18.0" fill="rgb(136,115,164)" opacity="1.0" /><rect x="501.0" y="341.0" rx="6.6666665" ry="6.6666665" width="18.0" height="18.0" fill="rgb(136,115,164)" opacity="1.0" /><rect x="1.0" y="361.0" rx="6.6666665" ry="6.6666665" width="18.0" height="18.0" fill="rgb(136,115,164)" opacity="1.0" /><rect x="41.0" y="361.0" rx="6.6666665" ry="6.6666665" width="18.0" height="18.0" fill="rgb(136,115,164)" opacity="1.0" /><rect x="121.0" y="361.0" rx="6.6666665" ry="6.6666665" width="18.0" height="18.0" fill="rgb(136,115,164)" opacity="1.0" /><rect x="141.0" y="361.0" rx="6.6666665" ry="6.6666665" width="18.0" height="18.0" fill="rgb(136,115,164)" opacity="1.0" /><rect x="201.0" y="361.0" rx="6.6666665" ry="6.6666665" width="18.0" height="18.0" fill="rgb(136,115,164)" opacity="1.0" /><rect x="221.0" y="361.0" rx="6.6666665" ry="6.6666665" width="18.0" height="18.0" fill="rgb(136,115,164)" opacity="1.0" /><rect x="341.0" y="361.0" rx="6.6666665" ry="6.6666665" width="18.0" height="18.0" fill="rgb(136,115,164)" opacity="1.0" /><rect x="381.0" y="361.0" rx="6.6666665" ry="6.6666665" width="18.0" height="18.0" fill="rgb(136,115,164)" opacity="1.0" /><rect x="501.0" y="361.0" rx="6.6666665" ry="6.6666665" width="18.0" height="18.0" fill="rgb(136,115,164)" opacity="1.0" /><rect x="521.0" y="361.0" rx="6.6666665" ry="6.6666665" width="18.0" height="18.0" fill="rgb(136,115,164)" opacity="1.0" /><rect x="561.0" y="361.0" rx="6.6666665" ry="6.6666665" width="18.0" height="18.0" fill="rgb(136,115,164)" opacity="1.0" /><rect x="1.0" y="381.0" rx="6.6666665" ry="6.6666665" width="18.0" height="18.0" fill="rgb(136,115,164)" opacity="1.0" /><rect x="41.0" y="381.0" rx="6.6666665" ry="6.6666665" width="18.0" height="18.0" fill="rgb(136,115,164)" opacity="1.0" /><rect x="61.0" y="381.0" rx="6.6666665" ry="6.6666665" width="18.0" height="18.0" fill="rgb(136,115,164)" opacity="1.0" /><rect x="81.0" y="381.0" rx="6.6666665" ry="6.6666665" width="18.0" height="18.0" fill="rgb(136,115,164)" opacity="1.0" /><rect x="181.0" y="381.0" rx="6.6666665" ry="6.6666665" width="18.0" height="18.0" fill="rgb(136,115,164)" opacity="1.0" /><rect x="221.0" y="381.0" rx="6.6666665" ry="6.6666665" width="18.0" height="18.0" fill="rgb(136,115,164)" opacity="1.0" /><rect x="241.0" y="381.0" rx="6.6666665" ry="6.6666665" width="18.0" height="18.0" fill="rgb(136,115,164)" opacity="1.0" /><rect x="281.0" y="381.0" rx="6.6666665" ry="6.6666665" width="18.0" height="18.0" fill="rgb(136,115,164)" opacity="1.0" /><rect x="321.0" y="381.0" rx="6.6666665" ry="6.6666665" width="18.0" height="18.0" fill="rgb(136,115,164)" opacity="1.0" /><rect x="361.0" y="381.0" rx="6.6666665" ry="6.6666665" width="18.0" height="18.0" fill="rgb(136,115,164)" opacity="1.0" /><rect x="381.0" y="381.0" rx="6.6666665" ry="6.6666665" width="18.0" height="18.0" fill="rgb(136,115,164)" opacity="1.0" /><rect x="421.0" y="381.0" rx="6.6666665" ry="6.6666665" width="18.0" height="18.0" fill="rgb(136,115,164)" opacity="1.0" /><rect x="441.0" y="381.0" rx="6.6666665" ry="6.6666665" width="18.0" height="18.0" fill="rgb(136,115,164)" opacity="1.0" /><rect x="461.0" y="381.0" rx="6.6666665" ry="6.6666665" width="18.0" height="18.0" fill="rgb(136,115,164)" opacity="1.0" /><rect x="481.0" y="381.0" rx="6.6666665" ry="6.6666665" width="18.0" height="18.0" fill="rgb(136,115,164)" opacity="1.0" /><rect x="1.0" y="401.0" rx="6.6666665" ry="6.6666665" width="18.0" height="18.0" fill="rgb(136,115,164)" opacity="1.0" /><rect x="41.0" y="401.0" rx="6.6666665" ry="6.6666665" width="18.0" height="18.0" fill="rgb(136,115,164)" opacity="1.0" /><rect x="81.0" y="401.0" rx="6.6666665" ry="6.6666665" width="18.0" height="18.0" fill="rgb(136,115,164)" opacity="1.0" /><rect x="121.0" y="401.0" rx="6.6666665" ry="6.6666665" width="18.0" height="18.0" fill="rgb(136,115,164)" opacity="1.0" /><rect x="141.0" y="401.0" rx="6.6666665" ry="6.6666665" width="18.0" height="18.0" fill="rgb(136,115,164)" opacity="1.0" /><rect x="181.0" y="401.0" rx="6.6666665" ry="6.6666665" width="18.0" height="18.0" fill="rgb(136,115,164)" opacity="1.0" /><rect x="201.0" y="401.0" rx="6.6666665" ry="6.6666665" width="18.0" height="18.0" fill="rgb(136,115,164)" opacity="1.0" /><rect x="221.0" y="401.0" rx="6.6666665" ry="6.6666665" width="18.0" height="18.0" fill="rgb(136,115,164)" opacity="1.0" /><rect x="241.0" y="401.0" rx="6.6666665" ry="6.6666665" width="18.0" height="18.0" fill="rgb(136,115,164)" opacity="1.0" /><rect x="361.0" y="401.0" rx="6.6666665" ry="6.6666665" width="18.0" height="18.0" fill="rgb(136,115,164)" opacity="1.0" /><rect x="401.0" y="401.0" rx="6.6666665" ry="6.6666665" width="18.0" height="18.0" fill="rgb(136,115,164)" opacity="1.0" /><rect x="421.0" y="401.0" rx="6.6666665" ry="6.6666665" width="18.0" height="18.0" fill="rgb(136,115,164)" opacity="1.0" /><rect x="441.0" y="401.0" rx="6.6666665" ry="6.6666665" width="18.0" height="18.0" fill="rgb(136,115,164)" opacity="1.0" /><rect x="461.0" y="401.0" rx="6.6666665" ry="6.6666665" width="18.0" height="18.0" fill="rgb(136,115,164)" opacity="1.0" /><rect x="481.0" y="401.0" rx="6.6666665" ry="6.6666665" width="18.0" height="18.0" fill="rgb(136,115,164)" opacity="1.0" /><rect x="501.0" y="401.0" rx="6.6666665" ry="6.6666665" width="18.0" height="18.0" fill="rgb(136,115,164)" opacity="1.0" /><rect x="521.0" y="401.0" rx="6.6666665" ry="6.6666665" width="18.0" height="18.0" fill="rgb(136,115,164)" opacity="1.0" /><rect x="541.0" y="401.0" rx="6.6666665" ry="6.6666665" width="18.0" height="18.0" fill="rgb(136,115,164)" opacity="1.0" /><rect x="161.0" y="421.0" rx="6.6666665" ry="6.6666665" width="18.0" height="18.0" fill="rgb(136,115,164)" opacity="1.0" /><rect x="221.0" y="421.0" rx="6.6666665" ry="6.6666665" width="18.0" height="18.0" fill="rgb(136,115,164)" opacity="1.0" /><rect x="241.0" y="421.0" rx="6.6666665" ry="6.6666665" width="18.0" height="18.0" fill="rgb(136,115,164)" opacity="1.0" /><rect x="261.0" y="421.0" rx="6.6666665" ry="6.6666665" width="18.0" height="18.0" fill="rgb(136,115,164)" opacity="1.0" /><rect x="281.0" y="421.0" rx="6.6666665" ry="6.6666665" width="18.0" height="18.0" fill="rgb(136,115,164)" opacity="1.0" /><rect x="301.0" y="421.0" rx="6.6666665" ry="6.6666665" width="18.0" height="18.0" fill="rgb(136,115,164)" opacity="1.0" /><rect x="381.0" y="421.0" rx="6.6666665" ry="6.6666665" width="18.0" height="18.0" fill="rgb(136,115,164)" opacity="1.0" /><rect x="401.0" y="421.0" rx="6.6666665" ry="6.6666665" width="18.0" height="18.0" fill="rgb(136,115,164)" opacity="1.0" /><rect x="481.0" y="421.0" rx="6.6666665" ry="6.6666665" width="18.0" height="18.0" fill="rgb(136,115,164)" opacity="1.0" /><rect x="541.0" y="421.0" rx="6.6666665" ry="6.6666665" width="18.0" height="18.0" fill="rgb(136,115,164)" opacity="1.0" /><rect x="181.0" y="441.0" rx="6.6666665" ry="6.6666665" width="18.0" height="18.0" fill="rgb(136,115,164)" opacity="1.0" /><rect x="261.0" y="441.0" rx="6.6666665" ry="6.6666665" width="18.0" height="18.0" fill="rgb(136,115,164)" opacity="1.0" /><rect x="281.0" y="441.0" rx="6.6666665" ry="6.6666665" width="18.0" height="18.0" fill="rgb(136,115,164)" opacity="1.0" /><rect x="301.0" y="441.0" rx="6.6666665" ry="6.6666665" width="18.0" height="18.0" fill="rgb(136,115,164)" opacity="1.0" /><rect x="341.0" y="441.0" rx="6.6666665" ry="6.6666665" width="18.0" height="18.0" fill="rgb(136,115,164)" opacity="1.0" /><rect x="401.0" y="441.0" rx="6.6666665" ry="6.6666665" width="18.0" height="18.0" fill="rgb(136,115,164)" opacity="1.0" /><rect x="441.0" y="441.0" rx="6.6666665" ry="6.6666665" width="18.0" height="18.0" fill="rgb(136,115,164)" opacity="1.0" /><rect x="481.0" y="441.0" rx="6.6666665" ry="6.6666665" width="18.0" height="18.0" fill="rgb(136,115,164)" opacity="1.0" /><rect x="501.0" y="441.0" rx="6.6666665" ry="6.6666665" width="18.0" height="18.0" fill="rgb(136,115,164)" opacity="1.0" /><rect x="521.0" y="441.0" rx="6.6666665" ry="6.6666665" width="18.0" height="18.0" fill="rgb(136,115,164)" opacity="1.0" /><rect x="161.0" y="461.0" rx="6.6666665" ry="6.6666665" width="18.0" height="18.0" fill="rgb(136,115,164)" opacity="1.0" /><rect x="201.0" y="461.0" rx="6.6666665" ry="6.6666665" width="18.0" height="18.0" fill="rgb(136,115,164)" opacity="1.0" /><rect x="221.0" y="461.0" rx="6.6666665" ry="6.6666665" width="18.0" height="18.0" fill="rgb(136,115,164)" opacity="1.0" /><rect x="241.0" y="461.0" rx="6.6666665" ry="6.6666665" width="18.0" height="18.0" fill="rgb(136,115,164)" opacity="1.0" /><rect x="261.0" y="461.0" rx="6.6666665" ry="6.6666665" width="18.0" height="18.0" fill="rgb(136,115,164)" opacity="1.0" /><rect x="301.0" y="461.0" rx="6.6666665" ry="6.6666665" width="18.0" height="18.0" fill="rgb(136,115,164)" opacity="1.0" /><rect x="381.0" y="461.0" rx="6.6666665" ry="6.6666665" width="18.0" height="18.0" fill="rgb(136,115,164)" opacity="1.0" /><rect x="401.0" y="461.0" rx="6.6666665" ry="6.6666665" width="18.0" height="18.0" fill="rgb(136,115,164)" opacity="1.0" /><rect x="481.0" y="461.0" rx="6.6666665" ry="6.6666665" width="18.0" height="18.0" fill="rgb(136,115,164)" opacity="1.0" /><rect x="521.0" y="461.0" rx="6.6666665" ry="6.6666665" width="18.0" height="18.0" fill="rgb(136,115,164)" opacity="1.0" /><rect x="541.0" y="461.0" rx="6.6666665" ry="6.6666665" width="18.0" height="18.0" fill="rgb(136,115,164)" opacity="1.0" /><rect x="561.0" y="461.0" rx="6.6666665" ry="6.6666665" width="18.0" height="18.0" fill="rgb(136,115,164)" opacity="1.0" /><rect x="161.0" y="481.0" rx="6.6666665" ry="6.6666665" width="18.0" height="18.0" fill="rgb(136,115,164)" opacity="1.0" /><rect x="201.0" y="481.0" rx="6.6666665" ry="6.6666665" width="18.0" height="18.0" fill="rgb(136,115,164)" opacity="1.0" /><rect x="221.0" y="481.0" rx="6.6666665" ry="6.6666665" width="18.0" height="18.0" fill="rgb(136,115,164)" opacity="1.0" /><rect x="241.0" y="481.0" rx="6.6666665" ry="6.6666665" width="18.0" height="18.0" fill="rgb(136,115,164)" opacity="1.0" /><rect x="281.0" y="481.0" rx="6.6666665" ry="6.6666665" width="18.0" height="18.0" fill="rgb(136,115,164)" opacity="1.0" /><rect x="301.0" y="481.0" rx="6.6666665" ry="6.6666665" width="18.0" height="18.0" fill="rgb(136,115,164)" opacity="1.0" /><rect x="321.0" y="481.0" rx="6.6666665" ry="6.6666665" width="18.0" height="18.0" fill="rgb(136,115,164)" opacity="1.0" /><rect x="361.0" y="481.0" rx="6.6666665" ry="6.6666665" width="18.0" height="18.0" fill="rgb(136,115,164)" opacity="1.0" /><rect x="381.0" y="481.0" rx="6.6666665" ry="6.6666665" width="18.0" height="18.0" fill="rgb(136,115,164)" opacity="1.0" /><rect x="401.0" y="481.0" rx="6.6666665" ry="6.6666665" width="18.0" height="18.0" fill="rgb(136,115,164)" opacity="1.0" /><rect x="421.0" y="481.0" rx="6.6666665" ry="6.6666665" width="18.0" height="18.0" fill="rgb(136,115,164)" opacity="1.0" /><rect x="441.0" y="481.0" rx="6.6666665" ry="6.6666665" width="18.0" height="18.0" fill="rgb(136,115,164)" opacity="1.0" /><rect x="461.0" y="481.0" rx="6.6666665" ry="6.6666665" width="18.0" height="18.0" fill="rgb(136,115,164)" opacity="1.0" /><rect x="481.0" y="481.0" rx="6.6666665" ry="6.6666665" width="18.0" height="18.0" fill="rgb(136,115,164)" opacity="1.0" /><rect x="521.0" y="481.0" rx="6.6666665" ry="6.6666665" width="18.0" height="18.0" fill="rgb(136,115,164)" opacity="1.0" /><rect x="541.0" y="481.0" rx="6.6666665" ry="6.6666665" width="18.0" height="18.0" fill="rgb(136,115,164)" opacity="1.0" /><rect x="561.0" y="481.0" rx="6.6666665" ry="6.6666665" width="18.0" height="18.0" fill="rgb(136,115,164)" opacity="1.0" /><rect x="161.0" y="501.0" rx="6.6666665" ry="6.6666665" width="18.0" height="18.0" fill="rgb(136,115,164)" opacity="1.0" /><rect x="181.0" y="501.0" rx="6.6666665" ry="6.6666665" width="18.0" height="18.0" fill="rgb(136,115,164)" opacity="1.0" /><rect x="221.0" y="501.0" rx="6.6666665" ry="6.6666665" width="18.0" height="18.0" fill="rgb(136,115,164)" opacity="1.0" /><rect x="241.0" y="501.0" rx="6.6666665" ry="6.6666665" width="18.0" height="18.0" fill="rgb(136,115,164)" opacity="1.0" /><rect x="321.0" y="501.0" rx="6.6666665" ry="6.6666665" width="18.0" height="18.0" fill="rgb(136,115,164)" opacity="1.0" /><rect x="361.0" y="501.0" rx="6.6666665" ry="6.6666665" width="18.0" height="18.0" fill="rgb(136,115,164)" opacity="1.0" /><rect x="401.0" y="501.0" rx="6.6666665" ry="6.6666665" width="18.0" height="18.0" fill="rgb(136,115,164)" opacity="1.0" /><rect x="421.0" y="501.0" rx="6.6666665" ry="6.6666665" width="18.0" height="18.0" fill="rgb(136,115,164)" opacity="1.0" /><rect x="461.0" y="501.0" rx="6.6666665" ry="6.6666665" width="18.0" height="18.0" fill="rgb(136,115,164)" opacity="1.0" /><rect x="161.0" y="521.0" rx="6.6666665" ry="6.6666665" width="18.0" height="18.0" fill="rgb(136,115,164)" opacity="1.0" /><rect x="181.0" y="521.0" rx="6.6666665" ry="6.6666665" width="18.0" height="18.0" fill="rgb(136,115,164)" opacity="1.0" /><rect x="281.0" y="521.0" rx="6.6666665" ry="6.6666665" width="18.0" height="18.0" fill="rgb(136,115,164)" opacity="1.0" /><rect x="341.0" y="521.0" rx="6.6666665" ry="6.6666665" width="18.0" height="18.0" fill="rgb(136,115,164)" opacity="1.0" /><rect x="381.0" y="521.0" rx="6.6666665" ry="6.6666665" width="18.0" height="18.0" fill="rgb(136,115,164)" opacity="1.0" /><rect x="441.0" y="521.0" rx="6.6666665" ry="6.6666665" width="18.0" height="18.0" fill="rgb(136,115,164)" opacity="1.0" /><rect x="461.0" y="521.0" rx="6.6666665" ry="6.6666665" width="18.0" height="18.0" fill="rgb(136,115,164)" opacity="1.0" /><rect x="521.0" y="521.0" rx="6.6666665" ry="6.6666665" width="18.0" height="18.0" fill="rgb(136,115,164)" opacity="1.0" /><rect x="541.0" y="521.0" rx="6.6666665" ry="6.6666665" width="18.0" height="18.0" fill="rgb(136,115,164)" opacity="1.0" /><rect x="181.0" y="541.0" rx="6.6666665" ry="6.6666665" width="18.0" height="18.0" fill="rgb(136,115,164)" opacity="1.0" /><rect x="201.0" y="541.0" rx="6.6666665" ry="6.6666665" width="18.0" height="18.0" fill="rgb(136,115,164)" opacity="1.0" /><rect x="221.0" y="541.0" rx="6.6666665" ry="6.6666665" width="18.0" height="18.0" fill="rgb(136,115,164)" opacity="1.0" /><rect x="381.0" y="541.0" rx="6.6666665" ry="6.6666665" width="18.0" height="18.0" fill="rgb(136,115,164)" opacity="1.0" /><rect x="501.0" y="541.0" rx="6.6666665" ry="6.6666665" width="18.0" height="18.0" fill="rgb(136,115,164)" opacity="1.0" /><rect x="521.0" y="541.0" rx="6.6666665" ry="6.6666665" width="18.0" height="18.0" fill="rgb(136,115,164)" opacity="1.0" /><rect x="561.0" y="541.0" rx="6.6666665" ry="6.6666665" width="18.0" height="18.0" fill="rgb(136,115,164)" opacity="1.0" /><rect x="161.0" y="561.0" rx="6.6666665" ry="6.6666665" width="18.0" height="18.0" fill="rgb(136,115,164)" opacity="1.0" /><rect x="221.0" y="561.0" rx="6.6666665" ry="6.6666665" width="18.0" height="18.0" fill="rgb(136,115,164)" opacity="1.0" /><rect x="241.0" y="561.0" rx="6.6666665" ry="6.6666665" width="18.0" height="18.0" fill="rgb(136,115,164)" opacity="1.0" /><rect x="281.0" y="561.0" rx="6.6666665" ry="6.6666665" width="18.0" height="18.0" fill="rgb(136,115,164)" opacity="1.0" /><rect x="301.0" y="561.0" rx="6.6666665" ry="6.6666665" width="18.0" height="18.0" fill="rgb(136,115,164)" opacity="1.0" /><rect x="361.0" y="561.0" rx="6.6666665" ry="6.6666665" width="18.0" height="18.0" fill="rgb(136,115,164)" opacity="1.0" /><rect x="401.0" y="561.0" rx="6.6666665" ry="6.6666665" width="18.0" height="18.0" fill="rgb(136,115,164)" opacity="1.0" /><rect x="421.0" y="561.0" rx="6.6666665" ry="6.6666665" width="18.0" height="18.0" fill="rgb(136,115,164)" opacity="1.0" /><rect x="441.0" y="561.0" rx="6.6666665" ry="6.6666665" width="18.0" height="18.0" fill="rgb(136,115,164)" opacity="1.0" /><rect x="481.0" y="561.0" rx="6.6666665" ry="6.6666665" width="18.0" height="18.0" fill="rgb(136,115,164)" opacity="1.0" /><rect x="501.0" y="561.0" rx="6.6666665" ry="6.6666665" width="18.0" height="18.0" fill="rgb(136,115,164)" opacity="1.0" /><rect x="521.0" y="561.0" rx="6.6666665" ry="6.6666665" width="18.0" height="18.0" fill="rgb(136,115,164)" opacity="1.0" /><path d="M0 0 H112.0 A28.0 28.0 0 0 1 140 28.0 V112.0 A28.0 28.0 0 0 1 112.0 140 H28.0 A28.0 28.0 0 0 1 0 112.0 V28.0 A28.0 28.0 0 0 1 28 0 Z M20.0 20.0 H100.0 A20.0 20.0 0 0 1 120.0 40.0 V100.0 A20.0 20.0 0 0 1 100.0 120.0 H40.0 A20.0 20.0 0 0 1 20.0 100.0 V40.0 A20.0 20.0 0 0 1 40.0 20.0 Z" fill-rule="evenodd" fill="rgb(136,115,164)" opacity="1.0" /><path d="M440 0 H552.0 A28.0 28.0 0 0 1 580 28.0 V112.0 A28.0 28.0 0 0 1 552.0 140 H468.0 A28.0 28.0 0 0 1 440 112.0 V28.0 A28.0 28.0 0 0 1 468 0 Z M460.0 20.0 H540.0 A20.0 20.0 0 0 1 560.0 40.0 V100.0 A20.0 20.0 0 0 1 540.0 120.0 H480.0 A20.0 20.0 0 0 1 460.0 100.0 V40.0 A20.0 20.0 0 0 1 480.0 20.0 Z" fill-rule="evenodd" fill="rgb(136,115,164)" opacity="1.0" /><rect x="40" y="40" rx="20.0" ry="20.0" width="60" height="60" fill="rgb(136,115,164)" opacity="1.0" /><rect x="480" y="40" rx="20.0" ry="20.0" width="60" height="60" fill="rgb(136,115,164)" opacity="1.0" /><path d="M0 440 H112.0 A28.0 28.0 0 0 1 140 468.0 V552.0 A28.0 28.0 0 0 1 112.0 580 H28.0 A28.0 28.0 0 0 1 0 552.0 V468.0 A28.0 28.0 0 0 1 28 440 Z M20.0 460.0 H100.0 A20.0 20.0 0 0 1 120.0 480.0 V540.0 A20.0 20.0 0 0 1 100.0 560.0 H40.0 A20.0 20.0 0 0 1 20.0 540.0 V480.0 A20.0 20.0 0 0 1 40.0 460.0 Z" fill-rule="evenodd" fill="rgb(136,115,164)" opacity="1.0" /><rect x="40" y="480" rx="20.0" ry="20.0" width="60" height="60" fill="rgb(136,115,164)" opacity="1.0" /></svg></g></svg>